<svg xmlns="http://www.w3.org/2000/svg" viewBox="0 0 1272.09 621.9">
  <defs>
    <style>.cls-1{isolation:isolate;}.cls-2{fill:#299c88;}.cls-10,.cls-11,.cls-2,.cls-3,.cls-4,.cls-6,.cls-7,.cls-8,.cls-9{mix-blend-mode:multiply;}.cls-3{fill:#82598f;}.cls-4{fill:#f69574;}.cls-5{fill:#fff;mix-blend-mode:soft-light;}.cls-6{fill:#e7714b;}.cls-7{fill:#a683b6;}.cls-8{fill:#ce5733;}.cls-9{fill:#2c9883;}.cls-10{fill:#2aa792;}.cls-11{fill:#22897a;}</style>
  </defs>
  <title>Polyhack Logo for Animation 2</title>
  <g class="cls-1">
    <g id="Layer_9" data-name="Layer 9"><polygon class="cls-2" points="0 310.95 0 540.31 245.09 425.63 0 310.95"/></g>
    <g id="Layer_11" data-name="Layer 11"><polygon class="cls-3" points="664.54 0 664.54 310.95 996.81 155.47 664.54 0"/></g>
    <g id="Layer_12" data-name="Layer 12"><polygon class="cls-4" points="664.54 310.95 664.54 621.9 996.81 466.42 664.54 310.95"/></g>
    <g id="Layer_13" data-name="Layer 13"><polygon class="cls-5" points="664.54 310.95 664.54 621.9 996.81 466.42 664.54 310.95"/></g>
    <g id="Layer_14" data-name="Layer 14"><polygon class="cls-6" points="996.81 155.47 996.81 466.42 664.54 310.95 996.81 155.47"/></g>
    <g id="Layer_1" data-name="Layer 1"><polygon class="cls-3" points="664.54 310.95 664.54 540.31 419.45 425.63 664.54 310.95"/></g>
    <g id="Layer_25" data-name="Layer 25"><polygon class="cls-7" points="664.54 155.47 664.54 466.42 332.27 310.95 664.54 155.47"/></g>
    <g id="Layer_26" data-name="Layer 26"><polygon class="cls-8" points="664.54 155.47 664.54 466.42 996.81 310.95 664.54 155.47"/></g>
    <g id="Layer_27" data-name="Layer 27"><polygon class="cls-3" points="664.54 0 664.54 310.95 332.27 155.47 664.54 0"/></g>
    <g id="Layer_28" data-name="Layer 28"><polygon class="cls-5" points="664.54 81.59 664.54 310.95 419.45 196.27 664.54 81.59"/></g>
    <g id="Layer_21" data-name="Layer 21"><polygon class="cls-5" points="664.54 310.95 664.54 540.31 909.62 425.63 664.54 310.95"/></g>
    <g id="Layer_22" data-name="Layer 22"><polygon class="cls-5" points="664.54 81.59 664.54 310.95 909.62 196.27 664.54 81.59"/></g>
    <g id="Layer_23" data-name="Layer 23"><polygon class="cls-3" points="332.27 155.47 332.27 466.42 664.54 310.95 332.27 155.47"/></g>
    <g id="Layer_24" data-name="Layer 24"><polygon class="cls-3" points="664.54 81.59 664.54 310.95 909.62 196.27 664.54 81.59"/></g>
    <g id="Layer_18" data-name="Layer 18"><polygon class="cls-3" points="332.27 310.95 332.27 621.9 664.54 466.42 332.27 310.95"/></g>
    <g id="Layer_19" data-name="Layer 19"><polygon class="cls-3" points="577.36 196.27 577.36 425.63 332.27 310.95 577.36 196.27"/></g>
    <g id="Layer_20" data-name="Layer 20"><polygon class="cls-3" points="332.27 310.95 332.27 540.31 577.36 425.63 332.27 310.95"/></g>
    <g id="Layer_15" data-name="Layer 15"><polygon class="cls-3" points="332.27 310.95 332.27 540.31 87.19 425.63 332.27 310.95"/></g>
    <g id="Layer_16" data-name="Layer 16"><polygon class="cls-9" points="0 155.47 0 466.42 332.27 310.95 0 155.47"/></g>
    <g id="Layer_17" data-name="Layer 17"><polygon class="cls-10" points="245.09 425.63 245.09 196.27 0 310.95 245.09 425.63"/></g>
    <g id="Layer_10" data-name="Layer 10"><polygon class="cls-5" points="87.19 196.27 87.19 425.63 332.27 310.95 87.19 196.27"/></g>
    <g id="Layer_3" data-name="Layer 3"><polyline class="cls-5" points="663.86 310.95 331.93 466.42 498.32 544.2 585.59 503.36 664.54 540.31"/></g>
    <g id="Layer_4" data-name="Layer 4"><polyline class="cls-5" points="332.87 310.95 577.66 196.27 411.52 118.67 332.87 155.74"/></g>
    <g id="Layer_5" data-name="Layer 5"><polygon class="cls-9" points="1026.89 200.69 1026.89 430.04 1271.97 315.36 1026.89 200.69"/></g>
    <g id="Layer_6" data-name="Layer 6"><polygon class="cls-5" points="1272.09 315.31 1272.09 466.42 1188.31 505.57 1026.89 430.04 1272.09 315.31"/></g>
    <g id="Layer_7" data-name="Layer 7"><polygon class="cls-8" points="939.71 310.95 939.71 621.9 1271.97 466.42 939.71 310.95"/></g>
    <g id="Layer_29" data-name="Layer 29"><polygon class="cls-5" points="1272.09 315.31 1272.09 466.42 1188.31 505.57 1026.89 430.04 1272.09 315.31"/></g>
    <g id="Layer_8" data-name="Layer 8"><polygon class="cls-11" points="1271.97 466.42 1271.97 155.47 939.71 310.95 1271.97 466.42"/></g>
  </g>
</svg>
