<svg xmlns="http://www.w3.org/2000/svg" viewBox="0 0 1272.09 621.9"><defs><style>.cls-1{isolation:isolate;}.cls-2{fill:#299c88;}.cls-10,.cls-11,.cls-2,.cls-3,.cls-4,.cls-6,.cls-7,.cls-8,.cls-9{mix-blend-mode:multiply;}.cls-3{fill:#82598f;}.cls-4{fill:#f69574;}.cls-12,.cls-5{fill:#fff;}.cls-5{mix-blend-mode:soft-light;}.cls-6{fill:#e7714b;}.cls-7{fill:#a683b6;}.cls-8{fill:#ce5733;}.cls-9{fill:#2c9883;}.cls-10{fill:#2aa792;}.cls-11{fill:#22897a;}.cls-12{stroke:#fff;stroke-miterlimit:10;stroke-width:2.5px;}</style></defs><title>Polyhack Logo for Animation</title><g class="cls-1"><g id="Layer_9" data-name="Layer 9"><polygon class="cls-2" points="0 310.95 0 540.31 245.09 425.63 0 310.95"/></g><g id="Layer_11" data-name="Layer 11"><polygon class="cls-3" points="664.54 0 664.54 310.95 996.81 155.47 664.54 0"/></g><g id="Layer_12" data-name="Layer 12"><polygon class="cls-4" points="664.54 310.95 664.54 621.9 996.81 466.42 664.54 310.95"/></g><g id="Layer_13" data-name="Layer 13"><polygon class="cls-5" points="664.54 310.95 664.54 621.9 996.81 466.42 664.54 310.95"/></g><g id="Layer_14" data-name="Layer 14"><polygon class="cls-6" points="996.81 155.47 996.81 466.42 664.54 310.95 996.81 155.47"/></g><g id="Layer_1" data-name="Layer 1"><polygon class="cls-3" points="664.54 310.95 664.54 540.31 419.45 425.63 664.54 310.95"/></g><g id="Layer_25" data-name="Layer 25"><polygon class="cls-7" points="664.54 155.47 664.54 466.42 332.27 310.95 664.54 155.47"/></g><g id="Layer_26" data-name="Layer 26"><polygon class="cls-8" points="664.54 155.47 664.54 466.42 996.81 310.95 664.54 155.47"/></g><g id="Layer_27" data-name="Layer 27"><polygon class="cls-3" points="664.54 0 664.54 310.95 332.27 155.47 664.54 0"/></g><g id="Layer_28" data-name="Layer 28"><polygon class="cls-5" points="664.54 81.59 664.54 310.95 419.45 196.27 664.54 81.59"/></g><g id="Layer_21" data-name="Layer 21"><polygon class="cls-5" points="664.54 310.95 664.54 540.31 909.62 425.63 664.54 310.95"/></g><g id="Layer_22" data-name="Layer 22"><polygon class="cls-5" points="664.54 81.59 664.54 310.95 909.62 196.27 664.54 81.59"/></g><g id="Layer_23" data-name="Layer 23"><polygon class="cls-3" points="332.27 155.47 332.27 466.42 664.54 310.95 332.27 155.47"/></g><g id="Layer_24" data-name="Layer 24"><polygon class="cls-3" points="664.54 81.59 664.54 310.95 909.62 196.27 664.54 81.59"/></g><g id="Layer_18" data-name="Layer 18"><polygon class="cls-3" points="332.27 310.95 332.27 621.9 664.54 466.42 332.27 310.95"/></g><g id="Layer_19" data-name="Layer 19"><polygon class="cls-3" points="577.36 196.27 577.36 425.63 332.27 310.95 577.36 196.27"/></g><g id="Layer_20" data-name="Layer 20"><polygon class="cls-3" points="332.27 310.95 332.27 540.31 577.36 425.63 332.27 310.95"/></g><g id="Layer_15" data-name="Layer 15"><polygon class="cls-3" points="332.27 310.95 332.27 540.31 87.19 425.63 332.27 310.95"/></g><g id="Layer_16" data-name="Layer 16"><polygon class="cls-9" points="0 155.47 0 466.42 332.27 310.95 0 155.47"/></g><g id="Layer_17" data-name="Layer 17"><polygon class="cls-10" points="245.09 425.63 245.09 196.27 0 310.95 245.09 425.63"/></g><g id="Layer_10" data-name="Layer 10"><polygon class="cls-5" points="87.19 196.27 87.19 425.63 332.27 310.95 87.19 196.27"/></g><g id="Layer_3" data-name="Layer 3"><polyline class="cls-5" points="663.86 310.95 331.93 466.42 498.32 544.2 585.59 503.36 664.54 540.31"/></g><g id="Layer_4" data-name="Layer 4"><polyline class="cls-5" points="332.87 310.95 577.66 196.27 411.52 118.67 332.87 155.74"/></g><g id="Layer_5" data-name="Layer 5"><polygon class="cls-9" points="1026.89 200.69 1026.89 430.04 1271.97 315.36 1026.89 200.69"/></g><g id="Layer_6" data-name="Layer 6"><polygon class="cls-5" points="1272.09 315.31 1272.09 466.42 1188.31 505.57 1026.89 430.04 1272.09 315.31"/></g><g id="Layer_7" data-name="Layer 7"><polygon class="cls-8" points="939.71 310.95 939.71 621.9 1271.97 466.42 939.71 310.95"/></g><g id="Layer_29" data-name="Layer 29"><polygon class="cls-5" points="1272.09 315.31 1272.09 466.42 1188.31 505.57 1026.89 430.04 1272.09 315.31"/></g><g id="Layer_8" data-name="Layer 8"><polygon class="cls-11" points="1271.97 466.42 1271.97 155.47 939.71 310.95 1271.97 466.42"/></g><g id="P"><path class="cls-12" d="M115.53,765.05H84.33V616.46h39.91q6.15,0,13.37.11t12.95,0.53a87.42,87.42,0,0,1,11.14,1.48,83.37,83.37,0,0,1,9.66,2.55q20.16,7.22,26.74,24c0.28,0.71.53,1.42,0.74,2.12s0.46,1.42.74,2.12q0.42,1.91.85,3.71a31.19,31.19,0,0,1,.63,3.93,33.49,33.49,0,0,1,.64,6.58v2.12q-0.43,15.5-7.86,27.17l-0.63.85-8.49-5.09,0.85-1.06a42.36,42.36,0,0,0,5.94-22.08V664c0-1,0-1.91-.11-2.76s-0.18-1.77-.32-2.76a37.06,37.06,0,0,0-1.28-5.94,13.24,13.24,0,0,0-1.06-3.4q-5.52-13.79-21.23-19.53a77.31,77.31,0,0,0-18.47-3.82q-2.54-.21-5.73-0.31c-2.12-.08-4.28-0.11-6.47-0.11h-39v59.43H113V629.2H147.8a54.72,54.72,0,0,1,17.83,4.25q13.58,5.52,18.25,17.83a5.54,5.54,0,0,1,.53,1.49,5.22,5.22,0,0,0,.53,1.48,11.1,11.1,0,0,1,.53,2.66,10.76,10.76,0,0,0,.53,2.65,12.26,12.26,0,0,1,.21,2.34v3.61a38,38,0,0,1-4.88,19.32,45.56,45.56,0,0,1-4.25,5.74,28.18,28.18,0,0,1-6.37,5.41,38.77,38.77,0,0,1-9.13,4.14A44.89,44.89,0,0,1,149.28,702c-1,0-2.3,0-3.93.1s-3.65.11-6.05,0.11H128.48q-2.55,0-5.09-.21h-1.27V687.36h-6.58v77.69ZM86.66,762.5H113V687.36H95.36V622.83h36.3q4.67,0,9.34.11t8.28,0.32a74,74,0,0,1,10.3,1.48,68.59,68.59,0,0,1,8.81,2.55q16.56,5.95,22.72,21a13.16,13.16,0,0,1,1.06,3.61,36.81,36.81,0,0,1,1.27,6.36,8.4,8.4,0,0,1,.42,2.66,25,25,0,0,0,.21,3.08v1.48a48.6,48.6,0,0,1-5.73,22.29l4,2.55q6.79-10.61,6.79-24.84v-1.7c0-1.13,0-2.23-.11-3.29s-0.18-2.15-.32-3.29-0.53-2.47-.74-3.61-0.46-2.26-.74-3.4c-0.29-.7-0.53-1.41-0.74-2.12a12.5,12.5,0,0,0-.74-1.91q-6.37-16.13-25.26-22.5a82,82,0,0,0-20.16-4q-5.73-.42-12.84-0.53T124.23,619H86.66V762.5Zm38-63c1.27,0,3.32,0,6.16.11s5.66,0.11,8.49.11h5.95a32.5,32.5,0,0,0,4-.21,41.32,41.32,0,0,0,11.46-1.8,39.63,39.63,0,0,0,8.49-3.82,27,27,0,0,0,6-5,34.13,34.13,0,0,0,3.93-5.3,28.14,28.14,0,0,0,3.4-8.49,53.44,53.44,0,0,0,1.28-9.55,2.39,2.39,0,0,0-.21-1.06v-2.22a11.62,11.62,0,0,0-.21-2.23,26.27,26.27,0,0,0-1.06-4.89,13.76,13.76,0,0,0-.85-3q-4.46-11.24-16.77-16.35a80.78,80.78,0,0,0-8.6-2.76,56.75,56.75,0,0,0-8.38-1.48H115.53v53.28h6.58V644.9h15.6c3.61,0,6,.08,7.11.21a30.2,30.2,0,0,1,13.58,4q8.49,5.32,8.49,16.35a23.32,23.32,0,0,1-1.49,9.13q-4.89,12.1-20,12.74h-20.8v12.1Zm0-14.65h20.8q8.28-.21,12.21-3.82a18.83,18.83,0,0,0,6.9-15.28v-0.21q-0.43-10-7.43-14.22a28.42,28.42,0,0,0-12.52-3.61,38.41,38.41,0,0,0-5.31-.21H124.66v37.36Z" transform="translate(-54.73 -379.91)"/></g><g id="O"><path class="cls-12" d="M371.55,689.91V691a71.36,71.36,0,0,1-5.84,28.87,76.05,76.05,0,0,1-16,23.56,74.48,74.48,0,0,1-23.56,15.92,74.88,74.88,0,0,1-57.74-.11,74.24,74.24,0,0,1-39.59-39.59A72.25,72.25,0,0,1,223,690.76a73.65,73.65,0,0,1,11.67-40.12l0.85-1.06,7.22,4.67a73.72,73.72,0,0,1,8.07-10,69.37,69.37,0,0,1,28.44-16.77l-2.33-8.28,1.27-.21a70.84,70.84,0,0,1,19.11-2.55,74.76,74.76,0,0,1,29.08,5.95c1,0.42,2.12,1,3.4,1.59s2.51,1.31,3.72,2,2.3,1.34,3.29,1.91a10.78,10.78,0,0,1,1.91,1.28,3.45,3.45,0,0,0-.42.53l-1.7,2.44-3,4a71.3,71.3,0,0,1,9.76,8.07l0.42,0.43a61.73,61.73,0,0,1,9.34,11.89l0.63,1.28L347.14,661l-0.64-.85a56.38,56.38,0,0,0-8.28-10.62,59.32,59.32,0,0,0-8.92-7.43l-9.76,13.59-1.06-.64a37.48,37.48,0,0,0-10.4-4.35,46.3,46.3,0,0,0-11.25-1.38A41.6,41.6,0,0,0,277.41,654,43.67,43.67,0,0,0,262.23,667L268,670.8l-0.63,1.06A34,34,0,0,0,261.6,691a35.21,35.21,0,0,0,10,24.73,36.26,36.26,0,0,0,10.93,7.65,34.09,34.09,0,0,0,13.27,3.08V653.18H297a37,37,0,0,1,14.76,3,39.51,39.51,0,0,1,12.1,8.07,38,38,0,0,1,.42,53.28,38.91,38.91,0,0,1-11.67,8.17A36.21,36.21,0,0,1,298.32,729v24.62a97.45,97.45,0,0,0,12.31-1.49,61.1,61.1,0,0,0,23.56-10.5,63.86,63.86,0,0,0,17.41-19.21,62,62,0,0,0,8.49-31.63V689.7Zm-74.29,72.6a69.61,69.61,0,0,0,27.6-5.52,73.22,73.22,0,0,0,22.71-15.08,72,72,0,0,0,15.5-22.39A69.12,69.12,0,0,0,369,692h-6.37a67.11,67.11,0,0,1-2.44,16.45,64.69,64.69,0,0,1-24.62,35,66.59,66.59,0,0,1-24.52,10.93,45.85,45.85,0,0,1-6.79,1.17q-3.4.32-7,.32h-1.49V729a36.21,36.21,0,0,1-14.33-3.29,38.87,38.87,0,0,1-11.67-8.17A38.06,38.06,0,0,1,259,691a37.11,37.11,0,0,1,5.52-19.53L261,669.11a43,43,0,0,0-3.5,38.85,38.89,38.89,0,0,0,9.23,13.58l0.85,1.06-15.71,15.28L251,737l-0.21-.21A60,60,0,0,1,238,718.88a68.26,68.26,0,0,1-5.94-20.7,66.38,66.38,0,0,1,1-21.44,61.92,61.92,0,0,1,8.17-20.38l-5.09-3.19a71.92,71.92,0,0,0-5,65.49,72.08,72.08,0,0,0,38.21,38.21A69.77,69.77,0,0,0,297.26,762.5ZM243.34,657.86a61.12,61.12,0,0,0-7.64,19.32,65.75,65.75,0,0,0-1.06,20.38A61.93,61.93,0,0,0,240,717.19a60.91,60.91,0,0,0,11.78,17.09l12.1-11.89a42.12,42.12,0,0,1-9-14,45.16,45.16,0,0,1,3.93-40.54ZM252.47,646a53.23,53.23,0,0,0-4.25,4.78q-1.91,2.44-3.61,5l15.5,10a45.22,45.22,0,0,1,58.8-13.16l8.28-11.68a59.39,59.39,0,0,0-20.38-7.64h-0.63q-1.49-.21-4.46-0.43t-6.16-.21h-3.5a9,9,0,0,0-2.86.42,31.67,31.67,0,0,0-6.79,1.28l-1.06.42L279.85,630A60.46,60.46,0,0,0,252.47,646Zm-1.7,90.86L251,737l0.63-1.06ZM297.26,619a71.06,71.06,0,0,0-17.19,2.12l1.7,5.73a72.33,72.33,0,0,1,15.28-1.7,63.91,63.91,0,0,1,34.39,9.76l2.23-3a14.87,14.87,0,0,0,1.38-2.12A68.83,68.83,0,0,0,297.26,619Zm32.69,17.83a62.39,62.39,0,0,0-32.9-9.13q-3.61,0-7.32.32a37.05,37.05,0,0,0-7.32,1.38l0.64,2.12a24,24,0,0,1,2.86-.64l2.87-.42c1-.14,2-0.25,3.18-0.32s2.34-.11,3.61-0.11c2.26,0,4.38.08,6.37,0.21s3.54,0.28,4.67.42l0.63,0.21a57.34,57.34,0,0,1,21.44,7.86Zm-31.63,89.59a34.11,34.11,0,0,0,13.27-3.08,36.32,36.32,0,0,0,10.93-7.65,35.19,35.19,0,0,0,10-24.73,34.18,34.18,0,0,0-2.65-13.47,35.44,35.44,0,0,0-7.32-11,36.2,36.2,0,0,0-10.93-7.64,37,37,0,0,0-13.27-3.29v70.9Zm42.88-80.67a60.05,60.05,0,0,0-9.13-7.43l-1.27,1.91a59.73,59.73,0,0,1,9.13,7.43A50.76,50.76,0,0,1,348,657.86l2.12-1.06a38.62,38.62,0,0,0-3.93-5.63q-2.23-2.65-4.56-5.2Z" transform="translate(-54.73 -379.91)"/></g><g id="L"><path class="cls-12" d="M408.25,765.05v-9.77h-9.76V616.46h24v27.6H433.3v94h71.54v27H408.25Zm0-12.53V643.85h11.68V618.79H401V752.53h7.21Zm22.5,0V740.46H419.93V646.6H410.8V752.53h20Zm71.75,10V740.64H433.3v14.64H410.8v7.22h91.7Zm-71.75-24.41V646.6h-8.28v91.49h8.28Z" transform="translate(-54.73 -379.91)"/></g><g id="Y"><path class="cls-12" d="M557.08,765.05v-9.54h-5.31v-46L500,625.11h7.85l-5.3-8.66H629l-8.28,13.37h13.58l-48.4,79v56.25H557.08Zm0-12.1v-44.8l14.22-22.92-5.73-9.34-13.16,21.44-43.09-69.63h-4.67l49.67,81V753h2.76Zm-20-128,28.44,46,25-41.14h27.17l6.79-10.82H507l3.61,5.94h26.53Zm15.28,67.46,11.67-19-28.23-45.71H512.29Zm31,70V708.16l0.21-.21,46.27-75.57H619.28l-46.7,76.42v46.7H559.63v7H583.4ZM570,753v-44.8l0.21-.21,46.06-75.57H592.1l-25,41,7.22,11.89L559.63,708.8V753H570Z" transform="translate(-54.73 -379.91)"/></g><g id="H"><path class="cls-12" d="M694.35,765.05V709.44h-8.49v55.62H674.4V709.44H657v-93H696.9v64.32h52.43v-48h11.89V616.46h17.62V632.8h8.07V749.13h-8.07v15.92H694.35Zm-20-58.16V638.11h14.22v42.67h5.94V619h-35v87.88H674.4Zm8.91,0v-9.13l11,0.21V683.12h-8.49V640.45h-9.13v66.44h6.58Zm0,55.83V709.44h-6.58v53.28h6.58Zm11-55.83v-6.58h-8.49v6.58h8.49Zm2.55-9.13,52.43,0.42V683.12H696.9v14.65Zm79.6,65V749.13H765.68V700.31h-13.8v9.13h-55v53.28h79.6Zm-27.17-55.83v-6.58H696.9v6.58h52.43Zm27.17,39.69V635.14h-13v48H751.88V698H767.8v48.61h8.7Zm-15.28-65.81V635.14h-9.34v45.64h9.34Zm15.28-48V619h-13V632.8h13Zm8.07,113.78V635.14h-5.73V746.59h5.73Z" transform="translate(-54.73 -379.91)"/></g><g id="A"><path class="cls-12" d="M806,765.05l50.52-119.94H865l5.73-13.58h11l6.37-15.08h13.58l6.16,15.08h7.64l56.25,133.52H932.73l-10.4-24.84H866.08l-9.76,24.84H806Zm48.61-2.55,8.91-22.29H835.73l13.58-32.06H839.12L864,647.67h-5.73L809.83,762.5h44.79Zm9.76-24.83,6.37-15.92H914.9l-5.73-13.59h-57.1l-12.53,29.51h24.84Zm-21.44-32.06h7.43l24.41-58h-8.07Zm10.19,0h55l-23.78-58h-6.79Zm68.14,32.06-5.52-13.37h-43.3l-5.31,13.37h54.13ZM880.73,634.08h-8.28l-4.67,11h8.28Zm61.77,87.67-36.09-87.67H883.49l-4.88,11H886l24.84,60.5h13.37l6.58,16.13H942.5Zm-37.15-90.21L900,619H889.86l-5.31,12.53h20.8Zm62.83,131L913.84,634.08H909l37.15,90.22H931.89l6.58,15.92H925.09l9.13,22.29h34Zm-45.64-54.34H911.93l5.52,13.59h10.62Zm12.1,29.51-5.52-13.37H918.51L924,737.67h10.61Z" transform="translate(-54.73 -379.91)"/></g><g id="C"><path class="cls-12" d="M1056.24,765.05a73.84,73.84,0,0,1-23.35-3.72,76,76,0,0,1-20.59-10.4,70.67,70.67,0,0,1-16.24-16.24,77.35,77.35,0,0,1-10.72-21l-0.21-1.28,21.44-7a52,52,0,0,1-1.59-7.22,49.32,49.32,0,0,1-.53-7.22,49.87,49.87,0,0,1,3.08-17.3,52.67,52.67,0,0,1,8.6-15.18l-17.41-14.86,0.85-.85a71.68,71.68,0,0,1,25.37-19.53,75.5,75.5,0,0,1,59.65-1.28,71.43,71.43,0,0,1,24.09,16.35l0.85,0.85-21.65,21.65L1087,660a41.93,41.93,0,0,0-30.78-12.74,44.43,44.43,0,0,0-18.47,3.93,41,41,0,0,0-14.86,11.36,44.18,44.18,0,0,0-7.86,13.27A42.68,42.68,0,0,0,1012.3,691a40.73,40.73,0,0,0,2.12,13.37,41.86,41.86,0,0,0,6.26,12.42,45.85,45.85,0,0,0,9.55,9.66,42.59,42.59,0,0,0,12.1,6.26,43.58,43.58,0,0,0,13.9,2.23,40.89,40.89,0,0,0,16.77-3.39,42.74,42.74,0,0,0,14.22-9.55l1.06-.85,21.23,21.44-0.85.85a76.13,76.13,0,0,1-24,16.13A77,77,0,0,1,1056.24,765.05ZM988.1,714.11A75,75,0,0,0,998.61,734a69.9,69.9,0,0,0,15.6,15.39,72.2,72.2,0,0,0,42,13.37,71,71,0,0,0,27.38-5.52,66.6,66.6,0,0,0,12-6.26,74.86,74.86,0,0,0,10.51-8.39l-18-18a41.92,41.92,0,0,1-14,9.34,47.1,47.1,0,0,1-17.83,3.61,46,46,0,0,1-14.65-2.34,45.3,45.3,0,0,1-12.84-6.68,48.37,48.37,0,0,1-10.19-10.3,45,45,0,0,1-8.28-20.06,47.14,47.14,0,0,1-.53-7.11,46.47,46.47,0,0,1,46.49-46.27,46.65,46.65,0,0,1,17.09,3.18,43.37,43.37,0,0,1,14.54,9.34l18.25-18a69.11,69.11,0,0,0-23-15.07,72.13,72.13,0,0,0-26.85-5.09,71.07,71.07,0,0,0-53.92,24.41l17.41,14.65-0.85,1.06a51.2,51.2,0,0,0-8.81,14.86,47.24,47.24,0,0,0-3.08,17,49.21,49.21,0,0,0,2.34,14.86l0.42,1.28Zm68.35,42.67a63.58,63.58,0,0,1-25.58-5.2,66.23,66.23,0,0,1-35-35,63.57,63.57,0,0,1-5.2-25.58,62.87,62.87,0,0,1,5.2-25.47,66.54,66.54,0,0,1,35-34.92,63.58,63.58,0,0,1,25.58-5.2,62.85,62.85,0,0,1,25.47,5.2,66.82,66.82,0,0,1,34.92,34.92A62.92,62.92,0,0,1,1122,691a63.63,63.63,0,0,1-5.2,25.58,66.51,66.51,0,0,1-34.92,35A62.84,62.84,0,0,1,1056.45,756.78Zm0-129.07a61,61,0,0,0-24.62,5,65.33,65.33,0,0,0-20.06,13.51,62.85,62.85,0,0,0-13.58,20.09,63.18,63.18,0,0,0,0,49.22,64.13,64.13,0,0,0,33.65,33.7,62.94,62.94,0,0,0,49.14,0A62.84,62.84,0,0,0,1101,735.62a65.56,65.56,0,0,0,13.48-20.1,63.22,63.22,0,0,0,0-49.22,62.85,62.85,0,0,0-33.54-33.6A61.22,61.22,0,0,0,1056.45,627.71Z" transform="translate(-54.73 -379.91)"/></g><g id="K"><path class="cls-12" d="M1238.85,680.78l52.43,76.42h-17l5.52,8.07h-98.49V757.2h-27.39l-0.21-140.53h30.14v4.67H1197V672.5l33.54-36.93H1248l17-18.9h32.26Zm-57.53,74.09V724.51l-13.8,15.08V621.34h13.8v-2.12h-25l0.21,135.64h24.84Zm0-46.06,13.16-14.44V679.08l-13.16,14.44V623.89h-11.25V733l11.25-12.31V708.8Zm2.55-84.91v63l10.61-11.67V623.89h-10.61Zm91.28,138.83-3.82-5.52h-11.89l-43.51-63,16.56-18.25-3-4.46L1197,707.11V757.2h-13.16v5.52h91.28Zm-80.66-64.53-10.61,11.68v8.07l10.61-11.68v-8.07Zm-10.61,23.56v33.12h10.61V710.08ZM1197,695.21v8.28l32.69-36.09,4.46,6.58,32.9-35.88h-18Zm0-18.89v15.28l48.61-53.5h-14Zm38.63,4.25L1234,678l-14.65,16.35,41.39,60.5h8.91l-43.51-63.69Zm36.94,74.29h14l-49.46-72.18-7.85,8.71ZM1266,619.22l-14.65,16.35h21.23l-36.94,40.54,1.91,2.54,53.92-59.43H1266Z" transform="translate(-54.73 -379.91)"/></g></g></svg>